<svg width="176" height="40" viewBox="0 0 176 40" fill="none" xmlns="http://www.w3.org/2000/svg">
<path d="M2.25 15L21 5L39.75 15L21 25L2.25 15Z" stroke="#FF6636" stroke-width="3" stroke-linecap="round" stroke-linejoin="round"/>
<path d="M30.375 37.5V20L21 15" stroke="#FF6636" stroke-width="3" stroke-linecap="round" stroke-linejoin="round"/>
<path d="M35.375 17.3333V25.8521C35.3755 26.1218 35.2884 26.3843 35.1266 26.6001C34.074 28.0008 29.6333 33.1249 21 33.1249C12.3667 33.1249 7.92597 28.0008 6.87336 26.6001C6.71165 26.3843 6.62449 26.1218 6.625 25.8521V17.3333" stroke="#FF6636" stroke-width="3" stroke-linecap="round" stroke-linejoin="round"/>
<path d="M51.2955 32V8.72727H60.2045C61.8864 8.72727 63.2841 8.99242 64.3977 9.52273C65.5189 10.0455 66.3561 10.7614 66.9091 11.6705C67.4697 12.5795 67.75 13.6098 67.75 14.7614C67.75 15.7083 67.5682 16.5189 67.2045 17.1932C66.8409 17.8598 66.3523 18.4015 65.7386 18.8182C65.125 19.2348 64.4394 19.5341 63.6818 19.7159V19.9432C64.5076 19.9886 65.2992 20.2424 66.0568 20.7045C66.822 21.1591 67.447 21.803 67.9318 22.6364C68.4167 23.4697 68.6591 24.4773 68.6591 25.6591C68.6591 26.8636 68.3674 27.947 67.7841 28.9091C67.2008 29.8636 66.322 30.6174 65.1477 31.1705C63.9735 31.7235 62.4962 32 60.7159 32H51.2955ZM55.5114 28.4773H60.0455C61.5758 28.4773 62.678 28.1856 63.3523 27.6023C64.0341 27.0114 64.375 26.2538 64.375 25.3295C64.375 24.6402 64.2045 24.0189 63.8636 23.4659C63.5227 22.9053 63.0379 22.4659 62.4091 22.1477C61.7803 21.822 61.0303 21.6591 60.1591 21.6591H55.5114V28.4773ZM55.5114 18.625H59.6818C60.4091 18.625 61.0644 18.4924 61.6477 18.2273C62.2311 17.9545 62.6894 17.572 63.0227 17.0795C63.3636 16.5795 63.5341 15.9886 63.5341 15.3068C63.5341 14.4053 63.2159 13.6629 62.5795 13.0795C61.9508 12.4962 61.0152 12.2045 59.7727 12.2045H55.5114V18.625ZM71.3667 32V8.72727H75.5826V19.4205H75.8667L84.9463 8.72727H90.094L81.094 19.1705L90.1735 32H85.1053L78.1622 22.0227L75.5826 25.0682V32H71.3667ZM98.0177 12.2614V8.72727H116.586V12.2614H109.393V32H105.211V12.2614H98.0177ZM127.774 24.6591V14.5455H131.887V32H127.899V28.8977H127.717C127.323 29.875 126.675 30.6742 125.774 31.2955C124.88 31.9167 123.777 32.2273 122.467 32.2273C121.323 32.2273 120.312 31.9735 119.433 31.4659C118.562 30.9508 117.88 30.2045 117.387 29.2273C116.895 28.2424 116.649 27.053 116.649 25.6591V14.5455H120.762V25.0227C120.762 26.1288 121.065 27.0076 121.671 27.6591C122.277 28.3106 123.073 28.6364 124.058 28.6364C124.664 28.6364 125.251 28.4886 125.819 28.1932C126.387 27.8977 126.853 27.4583 127.217 26.875C127.588 26.2841 127.774 25.5455 127.774 24.6591ZM143.873 14.5455V17.7273H133.839V14.5455H143.873ZM136.316 10.3636H140.43V26.75C140.43 27.303 140.513 27.7273 140.68 28.0227C140.854 28.3106 141.082 28.5076 141.362 28.6136C141.642 28.7197 141.953 28.7727 142.294 28.7727C142.551 28.7727 142.786 28.7538 142.998 28.7159C143.218 28.678 143.385 28.6439 143.498 28.6136L144.191 31.8295C143.972 31.9053 143.657 31.9886 143.248 32.0795C142.847 32.1705 142.354 32.2235 141.771 32.2386C140.741 32.2689 139.813 32.1136 138.987 31.7727C138.161 31.4242 137.506 30.8864 137.021 30.1591C136.544 29.4318 136.309 28.5227 136.316 27.4318V10.3636ZM153.78 32.3409C152.075 32.3409 150.598 31.9659 149.348 31.2159C148.098 30.4659 147.128 29.4167 146.439 28.0682C145.757 26.7197 145.416 25.1439 145.416 23.3409C145.416 21.5379 145.757 19.9583 146.439 18.6023C147.128 17.2462 148.098 16.1932 149.348 15.4432C150.598 14.6932 152.075 14.3182 153.78 14.3182C155.484 14.3182 156.962 14.6932 158.212 15.4432C159.462 16.1932 160.427 17.2462 161.109 18.6023C161.799 19.9583 162.143 21.5379 162.143 23.3409C162.143 25.1439 161.799 26.7197 161.109 28.0682C160.427 29.4167 159.462 30.4659 158.212 31.2159C156.962 31.9659 155.484 32.3409 153.78 32.3409ZM153.802 29.0455C154.727 29.0455 155.499 28.7917 156.121 28.2841C156.742 27.7689 157.204 27.0795 157.507 26.2159C157.818 25.3523 157.973 24.3902 157.973 23.3295C157.973 22.2614 157.818 21.2955 157.507 20.4318C157.204 19.5606 156.742 18.8674 156.121 18.3523C155.499 17.8371 154.727 17.5795 153.802 17.5795C152.856 17.5795 152.068 17.8371 151.439 18.3523C150.818 18.8674 150.352 19.5606 150.041 20.4318C149.738 21.2955 149.587 22.2614 149.587 23.3295C149.587 24.3902 149.738 25.3523 150.041 26.2159C150.352 27.0795 150.818 27.7689 151.439 28.2841C152.068 28.7917 152.856 29.0455 153.802 29.0455ZM164.675 32V14.5455H168.664V17.4545H168.845C169.164 16.447 169.709 15.6705 170.482 15.125C171.262 14.572 172.152 14.2955 173.152 14.2955C173.379 14.2955 173.633 14.3068 173.914 14.3295C174.201 14.3447 174.44 14.3712 174.629 14.4091V18.1932C174.455 18.1326 174.179 18.0795 173.8 18.0341C173.429 17.9811 173.069 17.9545 172.72 17.9545C171.97 17.9545 171.296 18.1174 170.698 18.4432C170.107 18.7614 169.641 19.2045 169.3 19.7727C168.959 20.3409 168.789 20.9962 168.789 21.7386V32H164.675Z" fill="#1D2026"/>
</svg>
